<svg width="36" height="36" viewBox="0 0 36 36" fill="none" xmlns="http://www.w3.org/2000/svg">
<rect width="36" height="36" rx="8" fill="#FF6A28" fill-opacity="0.28"/>
<path d="M23 24.4302H19L14.55 27.3902C13.89 27.8302 13 27.3602 13 26.5602V24.4302C10 24.4302 8 22.4302 8 19.4302V13.4302C8 10.4302 10 8.43018 13 8.43018H23C26 8.43018 28 10.4302 28 13.4302V19.4302C28 22.4302 26 24.4302 23 24.4302Z" stroke="#FF6A28" stroke-width="1.5" stroke-miterlimit="10" stroke-linecap="round" stroke-linejoin="round"/>
<path d="M17.9998 17.3599V17.1499C17.9998 16.4699 18.4198 16.1099 18.8398 15.8199C19.2498 15.5399 19.6598 15.1799 19.6598 14.5199C19.6598 13.5999 18.9198 12.8599 17.9998 12.8599C17.0798 12.8599 16.3398 13.5999 16.3398 14.5199" stroke="#FF6A28" stroke-width="1.5" stroke-linecap="round" stroke-linejoin="round"/>
<path d="M17.9955 19.75H18.0045" stroke="#FF6A28" stroke-width="1.5" stroke-linecap="round" stroke-linejoin="round"/>
</svg>
