<svg width="50" height="51" viewBox="0 0 50 51" fill="none" xmlns="http://www.w3.org/2000/svg">
<path d="M25.8132 48.3731C39.1711 48.3731 49.9998 37.5444 49.9998 24.1865C49.9998 10.8287 39.1711 0 25.8132 0C12.4554 0 1.62671 10.8287 1.62671 24.1865C1.62671 37.5444 12.4554 48.3731 25.8132 48.3731Z" fill="url(#paint0_linear_1303_629)"/>
<path d="M46.0066 10.8746L14.8563 45.7565C17.329 47.0153 20.047 47.8585 22.9204 48.2024L49.3495 18.6039C48.6887 15.8082 47.5435 13.2008 46.0066 10.8746ZM37.5896 3.05859L6.14624 38.2694C6.89674 39.319 7.73097 40.3027 8.63695 41.2176L40.798 5.20246C39.7903 4.40412 38.7169 3.68949 37.5896 3.05859Z" fill="url(#paint1_linear_1303_629)"/>
<path d="M1.62646 24.1867C1.62646 28.9588 3.01086 33.411 5.39692 37.1575L30.8692 20.5807L18.2601 1.20215C8.59927 4.37758 1.62646 13.4673 1.62646 24.1867Z" fill="white"/>
<path d="M12.9512 21.6092L14.5359 20.6973L13.6239 22.282C12.9452 23.4601 12.9452 24.9132 13.6239 26.0913L14.5359 27.6761L12.9512 26.7641C11.7731 26.0853 10.3199 26.0853 9.14186 26.7641L7.55713 27.6761L8.4691 26.0913C9.14784 24.9132 9.14784 23.4601 8.4691 22.282L7.55713 20.6973L9.14186 21.6092C10.3199 22.288 11.7731 22.288 12.9512 21.6092Z" fill="#FF5509"/>
<path d="M11.5675 8.58451L13.6725 7.37354L12.4615 9.47853C11.5585 11.0453 11.5585 12.9709 12.4615 14.5377L13.6725 16.6427L11.5675 15.4317C10.0007 14.5287 8.07511 14.5287 6.50832 15.4317L4.40332 16.6427L5.61429 14.5377C6.51729 12.9709 6.51729 11.0453 5.61429 9.47853L4.40332 7.37354L6.50832 8.58451C8.07212 9.48451 10.0007 9.48451 11.5675 8.58451Z" fill="#FF5509"/>
<path d="M21.7454 17.1061L22.6454 16.5889L22.1281 17.4889C21.7424 18.1586 21.7424 18.9809 22.1281 19.6507L22.6454 20.5507L21.7454 20.0334C21.0756 19.6477 20.2534 19.6477 19.5836 20.0334L18.6836 20.5507L19.2009 19.6507C19.5866 18.9809 19.5866 18.1586 19.2009 17.4889L18.6836 16.5889L19.5836 17.1061C20.2504 17.4919 21.0756 17.4919 21.7454 17.1061Z" fill="#FF5509"/>
<path d="M32.5482 19.1812L2.46533 38.6524L5.67067 41.0115L13.2385 36.1138C13.4837 35.453 14.602 33.0371 18.5279 30.4955C22.4568 27.954 25.118 27.9241 25.8206 27.9719L33.3884 23.0742L32.5482 19.1812Z" fill="#FF6A28"/>
<path d="M25.6873 28.6297C24.9697 28.6028 22.479 28.7284 18.8879 31.0517C15.2999 33.3749 14.1696 35.5935 13.8945 36.2603L16.0205 37.9258L21.3039 37.8989C21.3039 37.8989 21.3039 37.8989 21.3069 37.8989C21.3786 37.8989 21.4504 37.9228 21.5072 37.9676L22.4491 38.6823C22.4879 38.6524 22.5208 38.6195 22.5627 38.5896L24.261 37.4922C24.3029 37.4653 24.3478 37.4474 24.3926 37.4235L24.1265 36.2723C24.1115 36.2005 24.1175 36.1258 24.1474 36.06L26.3361 31.252L25.6873 28.6297Z" fill="#FF3E13"/>
<path d="M24.9512 37.9526C24.8376 37.9526 24.724 37.9855 24.6223 38.0513L22.924 39.1487C22.6519 39.3251 22.5681 39.6809 22.7296 39.959L28.7875 50.3763C28.8712 50.5198 29.0057 50.6215 29.1702 50.6604C29.3316 50.6992 29.4991 50.6693 29.6396 50.5796L32.3008 48.8574C32.4413 48.7676 32.534 48.6271 32.5669 48.4627C32.5968 48.2982 32.5609 48.1338 32.4652 47.9992L25.4446 38.2068C25.322 38.0394 25.1366 37.9526 24.9512 37.9526Z" fill="#FF5509"/>
<path d="M32.5482 19.1812L2.46533 38.6524L3.93943 39.7378L32.934 20.9572L32.5482 19.1812Z" fill="#FF9262"/>
<path d="M18.8918 31.0516C15.3038 33.3749 14.1735 35.5935 13.8984 36.2603L15.9436 37.863L14.8523 36.0301C18.3297 31.0008 25.1769 29.3443 25.1769 29.3443L26.3371 31.252L25.6882 28.6327C24.9706 28.6058 22.4829 28.7284 18.8918 31.0516Z" fill="#FF6F2F"/>
<path d="M32.5678 48.4597C32.5977 48.2953 32.5618 48.1308 32.4661 47.9963L25.4455 38.2039C25.3289 38.0394 25.1435 37.9497 24.9551 37.9497C24.8415 37.9497 24.7279 37.9826 24.6262 38.0484C24.6262 38.0484 30.9173 47.2219 31.3568 47.784C31.7814 48.3222 29.9874 49.4524 28.6359 50.1102L28.7884 50.3734C28.8721 50.5169 29.0067 50.6186 29.1711 50.6574C29.3326 50.6963 29.5 50.6664 29.6405 50.5767L32.3017 48.8544C32.4422 48.7647 32.5349 48.6242 32.5678 48.4597Z" fill="#E82A00"/>
<path d="M32.5482 19.1812L2.46533 38.6524L3.14408 39.1517L32.7306 20.0154L32.5482 19.1812Z" fill="#FF6A28"/>
<path d="M0.861137 32.0985C0.843197 32.0446 0.816283 31.9998 0.774423 31.9639C0.744522 31.943 0.717614 31.9191 0.687713 31.8981C0.621932 31.8592 0.550169 31.8413 0.475418 31.8413C0.466447 31.8413 0.457478 31.8443 0.448508 31.8443C0.409638 31.8503 0.370769 31.8563 0.328908 31.8592C0.293027 31.8742 0.257146 31.8892 0.221266 31.9041C0.170435 31.931 0.128575 31.9699 0.0956842 32.0177C0.0687738 32.0446 0.0478427 32.0775 0.0388725 32.1164C0.0179421 32.1523 0.00897016 32.1882 0.00897016 32.23C-0.00299005 32.2689 -0.00299005 32.3078 0.00897016 32.3496C0.00897016 32.3885 0.0179421 32.4274 0.0388725 32.4632C0.0568128 32.5201 0.0867126 32.5679 0.131563 32.6068C0.161464 32.6307 0.191365 32.6546 0.221266 32.6755C0.257146 32.6905 0.293027 32.7054 0.328908 32.7204C0.367779 32.7264 0.406647 32.7323 0.448508 32.7353C0.487379 32.7294 0.526252 32.7234 0.568113 32.7204C0.603994 32.7054 0.63987 32.6905 0.67575 32.6755C0.726581 32.6486 0.768446 32.6098 0.801337 32.5619C0.828247 32.535 0.849174 32.5021 0.858144 32.4632C0.885054 32.4094 0.900006 32.3526 0.897016 32.2898C0.897016 32.2808 0.900004 32.2719 0.900004 32.2629C0.900004 32.2031 0.888047 32.1493 0.861137 32.0985Z" fill="white"/>
<defs>
<linearGradient id="paint0_linear_1303_629" x1="13.7397" y1="4.88222" x2="48.375" y2="60.2625" gradientUnits="userSpaceOnUse">
<stop offset="0.00558659" stop-color="#FFC8AE"/>
<stop offset="1" stop-color="#FFC05C"/>
</linearGradient>
<linearGradient id="paint1_linear_1303_629" x1="34.9228" y1="17.505" x2="1.85104" y2="67.8943" gradientUnits="userSpaceOnUse">
<stop offset="0.00558659" stop-color="#FFDDCD"/>
<stop offset="1" stop-color="#FFBFA2"/>
</linearGradient>
</defs>
</svg>
